<?xml version="1.0" encoding="UTF-8" standalone="no"?>
<svg
   xmlns:dc="http://purl.org/dc/elements/1.1/"
   xmlns:cc="http://creativecommons.org/ns#"
   xmlns:rdf="http://www.w3.org/1999/02/22-rdf-syntax-ns#"
   xmlns:svg="http://www.w3.org/2000/svg"
   xmlns="http://www.w3.org/2000/svg"
   xmlns:sodipodi="http://sodipodi.sourceforge.net/DTD/sodipodi-0.dtd"
   xmlns:inkscape="http://www.inkscape.org/namespaces/inkscape"
   height="426pt"
   viewBox="0 -32 426.66667 426"
   width="426pt"
   version="1.1"
   id="svg6"
   sodipodi:docname="double-chevron - Copy.svg"
   inkscape:version="1.0.2-2 (e86c870879, 2021-01-15)">
  <metadata
     id="metadata12">
    <rdf:RDF>
      <cc:Work
         rdf:about="">
        <dc:format>image/svg+xml</dc:format>
        <dc:type
           rdf:resource="http://purl.org/dc/dcmitype/StillImage" />
      </cc:Work>
    </rdf:RDF>
  </metadata>
  <defs
     id="defs10" />
  <sodipodi:namedview
     pagecolor="#ffffff"
     bordercolor="#666666"
     borderopacity="1"
     objecttolerance="10"
     gridtolerance="10"
     guidetolerance="10"
     inkscape:pageopacity="0"
     inkscape:pageshadow="2"
     inkscape:window-width="1920"
     inkscape:window-height="1001"
     id="namedview8"
     showgrid="false"
     inkscape:zoom="1.0332722"
     inkscape:cx="159.67027"
     inkscape:cy="286.50371"
     inkscape:window-x="-9"
     inkscape:window-y="-9"
     inkscape:window-maximized="1"
     inkscape:current-layer="svg6" />
  <g
     id="g839"
     transform="rotate(180,213.33398,181.66602)">
    <path
       d="m 213.33203,181.66797 c 0,4.26562 -1.27734,8.53125 -3.625,11.73047 l -106.66797,160 C 99.199219,359.16016 92.800781,363 85.332031,363 h -64 C 9.601562,363 0,353.39844 0,341.66797 0,337.39844 1.28125,333.13281 3.625,329.93359 L 102.39844,181.66797 3.625,33.398438 C 1.28125,30.199219 0,25.933594 0,21.667969 0,9.933594 9.601562,0.332031 21.332031,0.332031 h 64 c 7.46875,0 13.867188,3.839844 17.707029,9.601563 L 209.70703,169.93359 c 2.34766,3.19922 3.625,7.46485 3.625,11.73438 z m 0,0"
       id="path2" />
    <path
       d="m 426.66797,181.66797 c 0,4.26562 -1.28125,8.53125 -3.62891,11.73047 l -106.66406,160 C 312.53516,359.16016 306.13281,363 298.66797,363 h -64 c -11.73438,0 -21.33594,-9.60156 -21.33594,-21.33203 0,-4.26953 1.28125,-8.53516 3.62891,-11.73438 L 315.73437,181.66797 216.96094,33.398438 c -2.34766,-3.199219 -3.62891,-7.464844 -3.62891,-11.730469 0,-11.734375 9.60156,-21.335938 21.33594,-21.335938 h 64 c 7.46484,0 13.86719,3.839844 17.70703,9.601563 L 423.03906,169.93359 c 2.34766,3.19922 3.62891,7.46485 3.62891,11.73438 z m 0,0"
       id="path4" />
  </g>
</svg>
