<?xml version="1.0" encoding="UTF-8" standalone="no"?>
<svg
   xmlns:dc="http://purl.org/dc/elements/1.1/"
   xmlns:cc="http://creativecommons.org/ns#"
   xmlns:rdf="http://www.w3.org/1999/02/22-rdf-syntax-ns#"
   xmlns:svg="http://www.w3.org/2000/svg"
   xmlns="http://www.w3.org/2000/svg"
   xmlns:sodipodi="http://sodipodi.sourceforge.net/DTD/sodipodi-0.dtd"
   xmlns:inkscape="http://www.inkscape.org/namespaces/inkscape"
   height="512pt"
   viewBox="0 0 512 512"
   width="512pt"
   version="1.1"
   id="svg6"
   sodipodi:docname="refresh.svg"
   inkscape:version="1.0.2-2 (e86c870879, 2021-01-15)">
  <metadata
     id="metadata12">
    <rdf:RDF>
      <cc:Work
         rdf:about="">
        <dc:format>image/svg+xml</dc:format>
        <dc:type
           rdf:resource="http://purl.org/dc/dcmitype/StillImage" />
      </cc:Work>
    </rdf:RDF>
  </metadata>
  <defs
     id="defs10" />
  <sodipodi:namedview
     pagecolor="#ffffff"
     bordercolor="#666666"
     borderopacity="1"
     objecttolerance="10"
     gridtolerance="10"
     guidetolerance="10"
     inkscape:pageopacity="0"
     inkscape:pageshadow="2"
     inkscape:window-width="1920"
     inkscape:window-height="1001"
     id="namedview8"
     showgrid="false"
     inkscape:zoom="0.60791016"
     inkscape:cx="299.61667"
     inkscape:cy="366.26834"
     inkscape:window-x="-9"
     inkscape:window-y="-9"
     inkscape:window-maximized="1"
     inkscape:current-layer="svg6" />
  <path
     d="m 473.59766,185.80078 c 8.03515,2.67578 19.91796,-5.89453 17.70312,-17.69922 C 490.69141,165.07812 468.73047,54.886719 470,61.199219 c -1.19922,-5.398438 -5.10156,-9.898438 -10.5,-11.398438 -5.09766,-1.5 -10.80078,0 -14.69922,3.898438 L 430.10156,68.097656 C 384.80078,25.800781 322.59766,0 256,0 115.30078,0 0,115.30078 0,256 v 0.59766 c 0,8.45703 0.386719,14.99218 0.835938,19.99218 0.597656,6.625 5.480468,12.05078 12.003906,13.35938 l 30.816406,6.16015 c 10.03125,2.00782 19.050781,-6.40234 17.839844,-16.5 C 60.507812,271.375 60,263.19531 60,256 60,148.59766 148.59766,60 256,60 c 50.09766,0 97,20.199219 131.5,51.69922"
     id="path2"
     sodipodi:nodetypes="ccccccsssccccssc" />
  <path
     d="m 38.402344,326.19922 c -5.101563,-0.89844 -10.203125,0.60156 -13.5,4.19922 -3.601563,3.30078 -5.101563,8.69922 -4.203125,13.5 0.609375,3.01953 22.574219,112.21093 21.304687,105.89843 1.195313,5.40235 5.097656,9.90235 10.496094,11.39844 6.261719,1.57031 11.488281,-0.32812 14.699219,-3.89844 L 81.601562,442.89844 C 126.89844,485.19922 189.10156,512 256,512 396.69922,512 512,396.69922 512,256 v -0.90234 c 0,-6.64844 -0.24219,-13.17579 -0.79688,-19.66407 -0.57031,-6.6289 -5.43359,-12.07422 -11.95312,-13.40625 l -30.90625,-6.29687 c -10.04297,-2.04688 -19.125,6.37109 -17.89063,16.51562 C 451.52344,241 452,249.51172 452,256 c 0,107.39844 -88.59766,196 -196,196 -50.09766,0 -97,-20.19922 -131.5,-52"
     id="path4"
     sodipodi:nodetypes="cccccccsssccccssc" />
</svg>
