<?xml version="1.0" encoding="UTF-8" standalone="no"?>
<svg
   viewBox="0 0 48 48"
   width="48px"
   height="48px"
   version="1.1"
   id="svg32"
   sodipodi:docname="instagram (copy).svg"
   inkscape:version="1.2-alpha1 (b6a15bb, 2022-02-23)"
   xmlns:inkscape="http://www.inkscape.org/namespaces/inkscape"
   xmlns:sodipodi="http://sodipodi.sourceforge.net/DTD/sodipodi-0.dtd"
   xmlns="http://www.w3.org/2000/svg"
   xmlns:svg="http://www.w3.org/2000/svg">
  <defs
     id="defs36" />
  <sodipodi:namedview
     id="namedview34"
     pagecolor="#ffffff"
     bordercolor="#000000"
     borderopacity="0.25"
     inkscape:pageshadow="2"
     inkscape:pageopacity="0.0"
     inkscape:pagecheckerboard="0"
     inkscape:deskcolor="#d1d1d1"
     showgrid="false"
     inkscape:zoom="5.4895833"
     inkscape:cx="37.616698"
     inkscape:cy="11.203036"
     inkscape:window-width="1366"
     inkscape:window-height="700"
     inkscape:window-x="0"
     inkscape:window-y="38"
     inkscape:window-maximized="1"
     inkscape:current-layer="svg32" />
  <radialGradient
     id="yOrnnhliCrdS2gy~4tD8ma"
     cx="19.38"
     cy="42.035"
     r="44.899"
     gradientUnits="userSpaceOnUse">
    <stop
       offset="0"
       stop-color="#fd5"
       id="stop2" />
    <stop
       offset=".328"
       stop-color="#ff543f"
       id="stop4" />
    <stop
       offset=".348"
       stop-color="#fc5245"
       id="stop6" />
    <stop
       offset=".504"
       stop-color="#e64771"
       id="stop8" />
    <stop
       offset=".643"
       stop-color="#d53e91"
       id="stop10" />
    <stop
       offset=".761"
       stop-color="#cc39a4"
       id="stop12" />
    <stop
       offset=".841"
       stop-color="#c837ab"
       id="stop14" />
  </radialGradient>
  <radialGradient
     id="yOrnnhliCrdS2gy~4tD8mb"
     cx="11.786"
     cy="5.54"
     r="29.813"
     gradientTransform="matrix(1 0 0 .6663 0 1.849)"
     gradientUnits="userSpaceOnUse">
    <stop
       offset="0"
       stop-color="#4168c9"
       id="stop19" />
    <stop
       offset=".999"
       stop-color="#4168c9"
       stop-opacity="0"
       id="stop21" />
  </radialGradient>
  <style
     type="text/css"
     id="style246">
	.st0{fill:#FFBE00;}
	.st1{fill:#005C87;}
	.st2{fill:#FFFFFF;}
	.st3{fill:#C21906;}
</style>
  <g
     id="g262"
     transform="matrix(0.01685783,0,0,0.01685783,5.0349413,5.0349412)">
	<path
   class="st0"
   d="M 0,0 H 2250 V 1520.8 H 0 Z"
   id="path248" />

	<path
   class="st0"
   d="M 0,0 H 2250 V 1520.8 H 0 Z M 0,1583.3 H 2250 V 2250 H 0 Z"
   id="path250" />

	<ellipse
   class="st1"
   cx="1125"
   cy="781.29999"
   rx="1083.3"
   ry="447.89999"
   id="ellipse252" />

	<path
   class="st2"
   d="m 1853.4,543.6 v 349.8 l -67.1,4.8 -7.2,-347.4 z M 1678.5,979.2 V 972 l 40.7,-40.7 h 7.2 l 40.7,40.7 v 7.2 l -40.7,40.7 h -7.2 z m -88.6,0 V 972 l 40.7,-40.7 h 7.2 l 40.7,40.7 v 7.2 l -40.7,40.7 h -7.2 z m 24,-176.8 h 12 c 9.6,0 17.3,-0.6 23.3,-1.7 6,-1.1 10.5,-2.5 13.9,-4.1 3.4,-1.6 5.6,-3.4 6.7,-5.3 1.1,-1.9 1.7,-3.8 1.7,-5.8 0,-6.1 -0.7,-16.8 -2.1,-32.1 -1.4,-15.3 -3.9,-37.4 -7.4,-66.1 l 71.9,-12 c 1.3,9 2.5,18.4 3.6,28.5 1.1,10.1 2.1,19.7 3.1,29 1,9.3 1.7,17.7 2.2,25.4 0.5,7.7 0.7,13.6 0.7,17.7 0,22 -3.2,40.7 -9.6,56.1 -6.4,15.3 -15.1,27.7 -26.1,37.1 -11,9.4 -23.7,16.2 -38.1,20.4 -15,4.2 -30.4,6.3 -46,6.2 h -9.6 c -10.2,0 -19.1,-1.3 -26.6,-3.8 -7.5,-2.5 -14.1,-7 -19.9,-13.4 -3.5,46.6 -19.3,82 -47.2,106.1 -27.9,24.1 -66.2,36.8 -114.8,38.1 l -16.8,-79.1 c 21.1,-4.8 38.4,-9.8 52,-15.1 13.6,-5.3 24.4,-10.6 32.6,-16 8.2,-5.4 13.9,-10.8 17.3,-16 3.4,-5.3 5.3,-10.3 6,-15.1 0,-9.6 -1.8,-27.1 -5.3,-52.5 -3.5,-25.4 -9,-57.4 -16.3,-96.1 l 71.9,-19.2 c 4.2,19.8 8,35.5 11.5,47.2 3.5,11.6 7.6,20.6 12.2,26.8 4.6,6.2 10.3,10.2 17,12 6.5,1.9 15.3,2.8 26.2,2.8 z M 1424.6,543.6 v 349.8 l -67.1,4.8 -7.2,-347.4 z m -117.4,48 v 7.2 l -43.1,43.1 h -7.2 l -43.1,-43.1 v -7.2 l 43.1,-43.1 h 7.2 z M 1185,895.8 c -6.7,0 -13.6,-0.4 -20.8,-1.2 -7.2,-0.8 -14.2,-2.5 -21.1,-5 -6.9,-2.6 -13.3,-6.2 -19.4,-11 -6.3,-5.1 -11.6,-11.5 -15.3,-18.7 -6.1,9.6 -14.4,18 -24.9,25.1 -10.5,7.2 -23,10.8 -37.4,10.8 -5.4,0 -11.2,-0.6 -17.2,-1.9 -6.1,-1.3 -12.1,-3.3 -18.2,-6 -6.1,-2.7 -11.8,-6.1 -17.3,-10.3 -5.4,-4.1 -10.2,-9.3 -14.4,-15.3 -9.6,14.4 -20.1,23.5 -31.6,27.5 -11.5,4 -23.3,6 -35.5,6 -18.2,0 -32.5,-3.3 -42.9,-9.8 -10.4,-6.6 -19.3,-15.2 -26.6,-26.1 -8.3,12.1 -18.9,21.2 -31.6,27.1 -12.8,5.9 -29.4,8.9 -49.8,8.9 h -9.6 c -10.9,0 -20.2,-1.3 -28,-3.8 -7.8,-2.5 -14.5,-6.9 -19.9,-12.9 v 12 c 0,21.7 -4.5,41.3 -13.4,58.7 -8.9,17.4 -21.3,32.2 -36.9,44.3 -15.6,12.1 -34,21.6 -54.9,28.3 -20.9,6.7 -43.4,10.1 -67.3,10.1 -47,0 -82.3,-10.9 -105.9,-32.8 -23.6,-21.9 -35.5,-53.3 -35.5,-94.1 0,-11.8 1.9,-28.8 5.7,-51 3.8,-22.2 12.3,-50.7 25.4,-85.5 l 57.5,16.8 c -3.5,14.4 -6.4,27.1 -8.6,38.1 -2.2,11 -4,20.6 -5.3,28.8 -2,12 -2.9,24.1 -2.9,36.2 0,7.4 1.3,14.1 3.8,20.1 2.6,6.1 6.8,11.3 12.7,15.8 5.9,4.5 13.6,8 23,10.5 9.4,2.6 21,3.8 34.7,3.8 16.3,0 30.7,-1.4 43.1,-4.1 12.5,-2.7 22.9,-6.1 31.4,-10.3 8.5,-4.2 14.9,-8.8 19.4,-13.9 4.5,-5.1 6.7,-10.1 6.7,-14.9 l -7.2,-345 74.3,-7.2 v 208.4 c 0,10.2 1.1,18.6 3.4,25.1 2.2,6.5 5.5,11.7 9.8,15.3 4.3,3.6 9.3,6.3 15.1,7.7 5.8,1.4 12.3,2.2 19.6,2.2 h 9.6 c 11.5,0 20.8,-1.1 27.8,-3.4 7,-2.2 12.6,-6.3 16.8,-12.2 4.1,-5.9 6.9,-14.1 8.4,-24.7 1.5,-10.5 2.1,-24.3 2.1,-41.2 h 64.7 v 33.3 c 0,5.9 -0.1,11.6 -0.2,17 -0.1,5.4 -0.4,10.2 -0.7,14.4 4.2,7.4 9.4,12 15.8,13.9 6.4,1.9 12.6,2.9 18.7,2.9 6.7,0 12.3,-1.2 16.8,-3.6 4.5,-2.4 8.1,-6.7 11,-12.9 2.9,-6.2 5,-14.5 6.2,-24.9 1.2,-10.4 1.9,-23.7 1.9,-40 h 64.7 v 34.5 c 0,6.1 -0.1,12 -0.2,17.7 -0.1,5.8 -0.4,10.7 -0.7,14.9 5.4,6.1 11,10 16.8,11.7 5.8,1.7 11.7,2.6 17.7,2.6 5.8,0 10.5,-1 14.1,-2.9 3.7,-1.9 6.5,-6 8.6,-12.2 2.1,-6.2 3.6,-15.3 4.5,-27.3 0.9,-12 1.4,-28.2 1.4,-48.6 h 64.7 v 51.8 c 0,15 3.3,25.3 9.8,30.9 6.6,5.6 17.6,8.4 33.3,8.4 h 12 c 9.6,0 17.3,-0.6 23.2,-1.7 5.9,-1.1 10.5,-2.5 13.9,-4.1 3.4,-1.6 5.6,-3.4 6.7,-5.3 1.1,-1.9 1.7,-3.8 1.7,-5.8 0,-6.1 -0.7,-16.8 -2.1,-32.1 -1.4,-15.3 -3.9,-37.4 -7.4,-66.1 l 71.9,-12 c 1.3,9 2.5,18.4 3.6,28.5 1.1,10.1 2.1,19.7 3.1,29 1,9.3 1.7,17.7 2.2,25.4 0.5,7.7 0.7,13.6 0.7,17.7 0,22 -3.2,40.7 -9.6,56.1 -6.4,15.3 -15.1,27.7 -26.1,37.1 -11,9.4 -23.7,16.2 -38.1,20.4 -15,4.2 -30.4,6.3 -46,6.2 h -9.5 z"
   id="path254" />

	<g
   id="g260">
		<path
   class="st1"
   d="m 1403.5,1821.9 28.8,-134.4 h -405.1 l -27.2,134.4 h 134.9 l -45.6,217.9 h 153.1 l 45.5,-217.9 z M 982.8,1687.5 H 782 L 661.4,1948.6 640.8,1687.5 H 426.3 l -134.6,448.3 h 147.5 l 87.7,-289.3 20.3,289.3 h 114.3 l 168.1,-310.1 -80.7,310.1 h 141 z m 998.7,0 h -141 l -74.2,280.2 -149.6,-280.2 H 1483 l -93.3,448.3 h 141.1 l 53.4,-264.7 135.3,264.7 h 147.7 z"
   id="path256" />

		<path
   class="st3"
   d="m 1082.8,2071.3 -14,64 h 153.3 l 13.8,-64 z"
   id="path258" />

	</g>

</g>
</svg>
