<?xml version="1.0" encoding="UTF-8" standalone="no"?>
<svg
   xmlns:dc="http://purl.org/dc/elements/1.1/"
   xmlns:cc="http://creativecommons.org/ns#"
   xmlns:rdf="http://www.w3.org/1999/02/22-rdf-syntax-ns#"
   xmlns:svg="http://www.w3.org/2000/svg"
   xmlns="http://www.w3.org/2000/svg"
   xmlns:xlink="http://www.w3.org/1999/xlink"
   xmlns:sodipodi="http://sodipodi.sourceforge.net/DTD/sodipodi-0.dtd"
   xmlns:inkscape="http://www.inkscape.org/namespaces/inkscape"
   version="1.1"
   id="Capa_1"
   x="0px"
   y="0px"
   viewBox="0 0 25.625 25.625"
   style="enable-background:new 0 0 25.625 25.625;"
   xml:space="preserve"
   sodipodi:docname="phone-receiver-silhouette.svg"
   inkscape:version="1.0.2-2 (e86c870879, 2021-01-15)"><metadata
   id="metadata41"><rdf:RDF><cc:Work
       rdf:about=""><dc:format>image/svg+xml</dc:format><dc:type
         rdf:resource="http://purl.org/dc/dcmitype/StillImage" /></cc:Work></rdf:RDF></metadata><defs
   id="defs39"><linearGradient
     inkscape:collect="always"
     id="linearGradient905"><stop
       style="stop-color:#00bfa6;stop-opacity:1"
       offset="0"
       id="stop901" /><stop
       style="stop-color:#ff3a85;stop-opacity:0;"
       offset="1"
       id="stop903" /></linearGradient><linearGradient
     inkscape:collect="always"
     xlink:href="#linearGradient905"
     id="linearGradient907"
     x1="0.87163258"
     y1="12.812184"
     x2="24.753845"
     y2="12.812184"
     gradientUnits="userSpaceOnUse" /><linearGradient
     inkscape:collect="always"
     xlink:href="#linearGradient905"
     id="linearGradient909"
     gradientUnits="userSpaceOnUse"
     x1="0.87163258"
     y1="12.812184"
     x2="34.359421"
     y2="11.196701" /></defs><sodipodi:namedview
   pagecolor="#ffffff"
   bordercolor="#666666"
   borderopacity="1"
   objecttolerance="10"
   gridtolerance="10"
   guidetolerance="10"
   inkscape:pageopacity="0"
   inkscape:pageshadow="2"
   inkscape:window-width="1920"
   inkscape:window-height="1001"
   id="namedview37"
   showgrid="false"
   inkscape:zoom="22.903361"
   inkscape:cx="10.676867"
   inkscape:cy="13.899499"
   inkscape:window-x="-9"
   inkscape:window-y="-9"
   inkscape:window-maximized="1"
   inkscape:current-layer="Capa_1" />
<g
   id="g4"
   style="fill-opacity:1;fill:url(#linearGradient907)">
	<path
   style="fill:url(#linearGradient909);fill-opacity:1"
   d="M22.079,17.835c-1.548-1.324-3.119-2.126-4.648-0.804l-0.913,0.799   c-0.668,0.58-1.91,3.29-6.712-2.234C5.005,10.079,7.862,9.22,8.531,8.645l0.918-0.8c1.521-1.325,0.947-2.993-0.15-4.71l-0.662-1.04   C7.535,0.382,6.335-0.743,4.81,0.58L3.986,1.3C3.312,1.791,1.428,3.387,0.971,6.419c-0.55,3.638,1.185,7.804,5.16,12.375   c3.97,4.573,7.857,6.87,11.539,6.83c3.06-0.033,4.908-1.675,5.486-2.272l0.827-0.721c1.521-1.322,0.576-2.668-0.973-3.995   L22.079,17.835z"
   id="path2" />
</g>
<g
   id="g6">
</g>
<g
   id="g8">
</g>
<g
   id="g10">
</g>
<g
   id="g12">
</g>
<g
   id="g14">
</g>
<g
   id="g16">
</g>
<g
   id="g18">
</g>
<g
   id="g20">
</g>
<g
   id="g22">
</g>
<g
   id="g24">
</g>
<g
   id="g26">
</g>
<g
   id="g28">
</g>
<g
   id="g30">
</g>
<g
   id="g32">
</g>
<g
   id="g34">
</g>
</svg>
