<?xml version="1.0" encoding="UTF-8" standalone="no"?>
<svg
   xmlns:dc="http://purl.org/dc/elements/1.1/"
   xmlns:cc="http://creativecommons.org/ns#"
   xmlns:rdf="http://www.w3.org/1999/02/22-rdf-syntax-ns#"
   xmlns:svg="http://www.w3.org/2000/svg"
   xmlns="http://www.w3.org/2000/svg"
   xmlns:sodipodi="http://sodipodi.sourceforge.net/DTD/sodipodi-0.dtd"
   xmlns:inkscape="http://www.inkscape.org/namespaces/inkscape"
   version="1.1"
   id="Capa_1"
   x="0px"
   y="0px"
   viewBox="0 0 447.243 447.243"
   style="enable-background:new 0 0 447.243 447.243;"
   xml:space="preserve"
   sodipodi:docname="arrow.svg"
   inkscape:version="1.0.2-2 (e86c870879, 2021-01-15)"><metadata
   id="metadata43"><rdf:RDF><cc:Work
       rdf:about=""><dc:format>image/svg+xml</dc:format><dc:type
         rdf:resource="http://purl.org/dc/dcmitype/StillImage" /></cc:Work></rdf:RDF></metadata><defs
   id="defs41" /><sodipodi:namedview
   pagecolor="#ffffff"
   bordercolor="#666666"
   borderopacity="1"
   objecttolerance="10"
   gridtolerance="10"
   guidetolerance="10"
   inkscape:pageopacity="0"
   inkscape:pageshadow="2"
   inkscape:window-width="1920"
   inkscape:window-height="1001"
   id="namedview39"
   showgrid="false"
   inkscape:zoom="1.8558144"
   inkscape:cx="223.62151"
   inkscape:cy="223.62151"
   inkscape:window-x="-9"
   inkscape:window-y="-9"
   inkscape:window-maximized="1"
   inkscape:current-layer="Capa_1"
   inkscape:document-rotation="0" />
<g
   id="g6"
   style="fill:#d3d3d3;fill-opacity:1">
	<g
   id="g4"
   style="fill:#d3d3d3;fill-opacity:1">
		<path
   d="M420.361,192.229c-1.83-0.297-3.682-0.434-5.535-0.41H99.305l6.88-3.2c6.725-3.183,12.843-7.515,18.08-12.8l88.48-88.48    c11.653-11.124,13.611-29.019,4.64-42.4c-10.441-14.259-30.464-17.355-44.724-6.914c-1.152,0.844-2.247,1.764-3.276,2.754    l-160,160C-3.119,213.269-3.13,233.53,9.36,246.034c0.008,0.008,0.017,0.017,0.025,0.025l160,160    c12.514,12.479,32.775,12.451,45.255-0.063c0.982-0.985,1.899-2.033,2.745-3.137c8.971-13.381,7.013-31.276-4.64-42.4    l-88.32-88.64c-4.695-4.7-10.093-8.641-16-11.68l-9.6-4.32h314.24c16.347,0.607,30.689-10.812,33.76-26.88    C449.654,211.494,437.806,195.059,420.361,192.229z"
   id="path2"
   style="fill:#d3d3d3;fill-opacity:1" />
	</g>
</g>
<g
   id="g8">
</g>
<g
   id="g10">
</g>
<g
   id="g12">
</g>
<g
   id="g14">
</g>
<g
   id="g16">
</g>
<g
   id="g18">
</g>
<g
   id="g20">
</g>
<g
   id="g22">
</g>
<g
   id="g24">
</g>
<g
   id="g26">
</g>
<g
   id="g28">
</g>
<g
   id="g30">
</g>
<g
   id="g32">
</g>
<g
   id="g34">
</g>
<g
   id="g36">
</g>
</svg>
