<?xml version="1.0" encoding="UTF-8" standalone="no"?>
<svg
   xmlns:dc="http://purl.org/dc/elements/1.1/"
   xmlns:cc="http://creativecommons.org/ns#"
   xmlns:rdf="http://www.w3.org/1999/02/22-rdf-syntax-ns#"
   xmlns:svg="http://www.w3.org/2000/svg"
   xmlns="http://www.w3.org/2000/svg"
   xmlns:sodipodi="http://sodipodi.sourceforge.net/DTD/sodipodi-0.dtd"
   xmlns:inkscape="http://www.inkscape.org/namespaces/inkscape"
   id="a644d002-dee1-4c60-b6d8-14071a55f848"
   data-name="Layer 1"
   width="801.92126"
   height="597.45739"
   viewBox="0 0 801.92126 597.45739"
   version="1.1"
   sodipodi:docname="undraw_Project_completed_re_pqqq.svg"
   inkscape:version="1.0.2-2 (e86c870879, 2021-01-15)">
  <metadata
     id="metadata75">
    <rdf:RDF>
      <cc:Work
         rdf:about="">
        <dc:format>image/svg+xml</dc:format>
        <dc:type
           rdf:resource="http://purl.org/dc/dcmitype/StillImage" />
      </cc:Work>
    </rdf:RDF>
  </metadata>
  <defs
     id="defs73" />
  <sodipodi:namedview
     pagecolor="#ffffff"
     bordercolor="#666666"
     borderopacity="1"
     objecttolerance="10"
     gridtolerance="10"
     guidetolerance="10"
     inkscape:pageopacity="0"
     inkscape:pageshadow="2"
     inkscape:window-width="1920"
     inkscape:window-height="1001"
     id="namedview71"
     showgrid="false"
     inkscape:zoom="0.98232716"
     inkscape:cx="307.45973"
     inkscape:cy="310.16541"
     inkscape:window-x="-9"
     inkscape:window-y="-9"
     inkscape:window-maximized="1"
     inkscape:current-layer="a644d002-dee1-4c60-b6d8-14071a55f848" />
  <circle
     id="a21b076b-2a02-49a5-bb32-17a8ec3aa4f0"
     data-name="Ellipse 44"
     cx="436.31397"
     cy="42"
     r="18.93406"
     fill="#00bfa6" />
  <path
     id="e6e13b85-c0f0-465c-a6f6-5f502d6349d1"
     data-name="Path 395"
     d="M633.47708,200.49409a1.96376,1.96376,0,0,1-1.1814-.39263l-.02113-.01585-4.44976-3.40392A1.97744,1.97744,0,0,1,630.231,193.543l2.88219,2.2102,6.81078-8.88542a1.9766,1.9766,0,0,1,2.7713-.36605l.00057.00043-.04227.05869.04342-.05869a1.979,1.979,0,0,1,.36562,2.77185l-8.011,10.44653a1.97779,1.97779,0,0,1-1.57284.77116Z"
     transform="translate(-199.03937 -151.2713)"
     fill="#fff" />
  <circle
     id="a589868e-34c5-408c-9ae2-7552629e8089"
     data-name="Ellipse 44"
     cx="436.31397"
     cy="170"
     r="18.93406"
     fill="#00bfa6" />
  <path
     id="e165961b-e395-421d-ab84-b3c9bf16c3b4"
     data-name="Path 395"
     d="M633.47708,328.49409a1.96376,1.96376,0,0,1-1.1814-.39263l-.02113-.01585-4.44976-3.40392A1.97744,1.97744,0,1,1,630.231,321.543l2.88219,2.2102,6.81078-8.88542a1.9766,1.9766,0,0,1,2.7713-.366l.00057.00043-.04227.05869.04342-.05869a1.979,1.979,0,0,1,.36562,2.77185l-8.011,10.44653a1.97779,1.97779,0,0,1-1.57284.77116Z"
     transform="translate(-199.03937 -151.2713)"
     fill="#fff" />
  <path
     d="M999.96063,748.26737h-381a1,1,0,0,1,0-2h381a1,1,0,0,1,0,2Z"
     transform="translate(-199.03937 -151.2713)"
     fill="#cbcbcb"
     id="path38" />
  <path
     d="M564.03937,363.2713h-365v-84h365Z"
     transform="translate(-199.03937 -151.2713)"
     fill="#fff"
     id="path40" />
  <path
     d="M251.71718,307.04569a3.55641,3.55641,0,0,0,0,7.11281H511.37656a3.55641,3.55641,0,0,0,0-7.11281Z"
     transform="translate(-199.03937 -151.2713)"
     fill="#00bfa6"
     id="path42" />
  <path
     d="M251.71718,328.38411a3.55641,3.55641,0,0,0-.015,7.11281H415.86152a3.55641,3.55641,0,1,0,0-7.11281Z"
     transform="translate(-199.03937 -151.2713)"
     fill="#00bfa6"
     id="path44" />
  <path
     d="M564.03937,363.2713h-365v-84h365Zm-359-6h353v-72h-353Z"
     transform="translate(-199.03937 -151.2713)"
     fill="#e5e5e5"
     id="path46" />
  <path
     d="M564.03937,491.2713h-365v-84h365Z"
     transform="translate(-199.03937 -151.2713)"
     fill="#fff"
     id="path48" />
  <path
     d="M251.71718,435.04569a3.55641,3.55641,0,0,0,0,7.11281H511.37656a3.55641,3.55641,0,0,0,0-7.11281Z"
     transform="translate(-199.03937 -151.2713)"
     fill="#e6e6e6"
     id="path50" />
  <path
     d="M251.71718,456.38411a3.55641,3.55641,0,0,0-.015,7.11281H415.86152a3.55641,3.55641,0,1,0,0-7.11281Z"
     transform="translate(-199.03937 -151.2713)"
     fill="#e6e6e6"
     id="path52" />
  <path
     d="M564.03937,491.2713h-365v-84h365Zm-359-6h353v-72h-353Z"
     transform="translate(-199.03937 -151.2713)"
     fill="#e5e5e5"
     id="path54" />
  <path
     d="M567.03937,235.2713h-365v-84h365Z"
     transform="translate(-199.03937 -151.2713)"
     fill="#fff"
     id="path56" />
  <path
     d="M254.71718,179.04569a3.55641,3.55641,0,0,0,0,7.11281H514.37656a3.55641,3.55641,0,0,0,0-7.11281Z"
     transform="translate(-199.03937 -151.2713)"
     fill="#00bfa6"
     id="path58" />
  <path
     d="M254.71718,200.38411a3.55641,3.55641,0,0,0-.015,7.11281H418.86152a3.55641,3.55641,0,1,0,0-7.11281Z"
     transform="translate(-199.03937 -151.2713)"
     fill="#00bfa6"
     id="path60" />
  <path
     d="M567.03937,235.2713h-365v-84h365Zm-359-6h353v-72h-353Z"
     transform="translate(-199.03937 -151.2713)"
     fill="#e5e5e5"
     id="path62" />
  <g
     id="g902"
     transform="translate(29.521733)">
    <path
       d="m 938.2874,748.7287 v -72.34 c 0,0 28.19167,51.28597 0,72.34 z"
       transform="translate(-199.03937,-151.2713)"
       fill="#f1f1f1"
       id="path64" />
    <path
       d="m 940.02887,748.716 -53.28962,-48.92125 c 0,0 56.84519,13.91551 53.28962,48.92125 z"
       transform="translate(-199.03937,-151.2713)"
       fill="#f1f1f1"
       id="path66" />
  </g>
  <g
     id="g922"
     transform="translate(32.575705)">
    <path
       d="m 682.90354,520.23035 a 10.74577,10.74577 0 0 1 12.20913,-11.06524 l 17.341,-34.02233 9.79852,17.25595 -17.96956,29.66266 a 10.804,10.804 0 0 1 -21.37913,-1.831 z"
       transform="translate(-199.03937,-151.2713)"
       fill="#ffb7b7"
       id="path6" />
    <polygon
       points="551.101,583.193 544.627,530.702 564.712,530.703 564.71,583.194 "
       fill="#ffb7b7"
       id="polygon8" />
    <path
       d="m 767.21955,747.65678 -43.8805,-0.002 v -0.555 a 17.08042,17.08042 0 0 1 17.07951,-17.07924 h 0.001 l 26.80072,0.001 z"
       transform="translate(-199.03937,-151.2713)"
       fill="#2f2e41"
       id="path10" />
    <polygon
       points="624.874,583.193 618.4,530.702 638.485,530.703 638.483,583.194 "
       fill="#ffb7b7"
       id="polygon12" />
    <path
       d="m 840.99286,747.65678 -43.88051,-0.002 v -0.555 a 17.08044,17.08044 0 0 1 17.07952,-17.07924 h 0.001 l 26.80072,0.001 z"
       transform="translate(-199.03937,-151.2713)"
       fill="#2f2e41"
       id="path14" />
    <path
       d="m 703.80614,490.62 -5.94091,9.90151 c 0,0 9.9015,0 11.88178,14.85223 l 7.92119,-9.9015 z"
       transform="translate(-199.03937,-151.2713)"
       fill="#e5e5e5"
       id="path16" />
    <path
       d="m 807.77182,469.82685 c 0,0 15.84241,41.58627 18.81283,67.33016 2.97042,25.74389 7.92119,94.06416 7.92119,94.06416 l 9.90154,88.12335 -27.72419,3.96059 -11.88182,-89.11344 -26.734,-88.12333 -5.94091,88.12329 -4.95073,80.20212 -25.74387,0.99014 -1.98032,-83.17258 -10.89164,-105.946 5.94091,-50.49761 z"
       transform="translate(-199.03937,-151.2713)"
       fill="#2f2e41"
       id="path18" />
    <circle
       cx="564.17572"
       cy="168.16435"
       r="24.75374"
       fill="#ffb7b7"
       id="circle20" />
    <polygon
       points="599.326,199.242 612.198,328.952 531.996,330.932 542.888,240.829 552.789,215.085 559.936,205.636 589.424,192.312 "
       fill="#e5e5e5"
       id="polygon22" />
    <path
       d="m 790.4442,436.65684 3.02985,-89.567 c 0,0 5.88152,0.4535 7.86179,3.424 1.98027,2.9705 34.65524,8.91134 34.65524,8.91134 l -5.94091,92.08391 c 0,0 24.75374,73.27106 15.84242,77.23167 -8.91132,3.96061 -24.75374,2.97045 -24.75374,2.97045 z"
       transform="translate(-199.03937,-151.2713)"
       fill="#2f2e41"
       id="path24" />
    <path
       d="m 742.422,425.27011 10.50378,-60.3646 -23.37578,15.80787 5.94093,43.56662 -4.95074,29.70449 c 0,0 -18.81286,82.18242 -12.872,85.15287 5.94086,2.97045 12.872,0 12.872,0 L 742.422,455.96475 Z"
       transform="translate(-199.03937,-151.2713)"
       fill="#2f2e41"
       id="path26" />
    <path
       d="m 736.48107,378.73309 -6.93107,1.98033 -2.97046,39.606 -4.95073,34.65524 -23.76358,42.57634 c 0,0 11.88178,-7.92118 16.83255,14.85226 l 26.17066,-45.56388 z"
       transform="translate(-199.03937,-151.2713)"
       fill="#2f2e41"
       id="path28" />
    <path
       d="m 783.93775,295.85068 4.66788,-1.86876 c 0,0 -9.76008,-10.74534 -23.33948,-9.81092 l 3.81928,-4.20474 c 0,0 -9.3358,-3.73747 -17.82284,6.07344 -4.4615,5.15737 -9.62347,11.21962 -12.84142,18.04866 h -4.999 l 2.08639,4.594 -7.30239,4.594 7.49518,-0.82518 a 25.67158,25.67158 0 0 0 -0.20341,7.62 9.85929,9.85929 0 0 0 3.61036,6.44971 v 0 c 0,0 5.789,-11.98274 5.789,-13.8515 v 4.67188 c 0,0 4.66788,-4.20468 4.66788,-7.00779 l 2.5461,3.27032 1.273,-5.13911 15.70106,5.13911 -2.5461,-4.20468 9.76012,1.40156 -3.81928,-5.13911 15.11132,21.22112 c 0,0 8.6526,-24.02422 -3.65365,-31.03201 z"
       transform="translate(-199.03937,-151.2713)"
       fill="#2f2e41"
       id="path30" />
    <path
       d="m 790.33889,512.11024 a 10.74579,10.74579 0 0 1 14.12491,-8.48465 l 23.61573,-30.0088 6.26232,18.82982 -23.386,25.61 a 10.804,10.804 0 0 1 -20.617,-5.94642 z"
       transform="translate(-199.03937,-151.2713)"
       fill="#ffb7b7"
       id="path32" />
    <polygon
       points="622.595,361.132 610.713,340.339 615.663,331.428 631.506,350.24 "
       fill="#e5e5e5"
       id="polygon34" />
    <path
       d="m 828.565,362.89069 7.92118,-3.96059 c 0,0 5.94091,7.9212 6.93105,14.85225 0.99014,6.93105 5.94091,15.84238 5.94091,20.79313 0,4.95075 13.8621,51.48777 13.8621,51.48777 L 831.53542,510.423 c 0,0 -6.93105,-23.76358 -21.78328,-25.7439 l 24.75374,-34.65528 -13.8621,-24.75371 z"
       fill="#2f2e41"
       id="path36"
       transform="translate(-199.03937,-151.2713)" />
    <circle
       id="b5ebad9a-150e-4d35-a0fa-e0e6655123db"
       data-name="Ellipse 44"
       cx="487.87692"
       cy="355.22601"
       r="18.934059"
       fill="#00bfa6" />
    <path
       id="a3d97315-c3ee-404f-9bfd-8b2853817976"
       data-name="Path 395"
       d="m 486.50967,361.93981 a 1.96375,1.96375 0 0 1 -1.1814,-0.39262 l -0.0211,-0.0159 -4.44976,-3.40392 a 1.97744,1.97744 0 1 1 2.40623,-3.13865 l 2.88219,2.2102 6.81078,-8.88542 a 1.97662,1.97662 0 0 1 2.7713,-0.366 l 5.7e-4,4.3e-4 -0.0423,0.0587 0.0434,-0.0587 a 1.979,1.979 0 0 1 0.36562,2.77185 l -8.011,10.44654 a 1.97782,1.97782 0 0 1 -1.57284,0.77116 z"
       fill="#ffffff" />
  </g>
</svg>
